<?xml version="1.0" encoding="UTF-8"?>
<!DOCTYPE svg PUBLIC "-//W3C//DTD SVG 1.1//EN" "http://www.w3.org/Graphics/SVG/1.1/DTD/svg11.dtd">
<svg xmlns="http://www.w3.org/2000/svg" version="1.1" width="966px" height="504px" style="shape-rendering:geometricPrecision; text-rendering:geometricPrecision; image-rendering:optimizeQuality; fill-rule:evenodd; clip-rule:evenodd" xmlns:xlink="http://www.w3.org/1999/xlink">
<g><path style="opacity:1" fill="#000000" d="M -0.5,-0.5 C 321.5,-0.5 643.5,-0.5 965.5,-0.5C 965.5,167.5 965.5,335.5 965.5,503.5C 643.5,503.5 321.5,503.5 -0.5,503.5C -0.5,335.5 -0.5,167.5 -0.5,-0.5 Z"/></g>
<g><path style="opacity:1" fill="#430000" d="M 927.5,36.5 C 630.5,36.5 333.5,36.5 36.5,36.5C 36.5,180.167 36.5,323.833 36.5,467.5C 35.5004,323.668 35.1671,179.668 35.5,35.5C 333,35.1669 630.334,35.5002 927.5,36.5 Z"/></g>
<g><path style="opacity:1" fill="#692222" d="M 927.5,36.5 C 928.117,36.6107 928.617,36.944 929,37.5C 929.167,109.167 929.333,180.833 929.5,252.5C 929.5,324.503 928.833,396.17 927.5,467.5C 927.5,466.833 927.5,466.167 927.5,465.5C 927.5,322.833 927.5,180.167 927.5,37.5C 630.833,37.5 334.167,37.5 37.5,37.5C 37.5,180.167 37.5,322.833 37.5,465.5C 37.5,466.167 37.5,466.833 37.5,467.5C 37.1667,467.5 36.8333,467.5 36.5,467.5C 36.5,323.833 36.5,180.167 36.5,36.5C 333.5,36.5 630.5,36.5 927.5,36.5 Z"/></g>
<g><path style="opacity:1" fill="#94181c" d="M 927.5,465.5 C 630.833,465.5 334.167,465.5 37.5,465.5C 37.5,322.833 37.5,180.167 37.5,37.5C 334.167,37.5 630.833,37.5 927.5,37.5C 927.5,180.167 927.5,322.833 927.5,465.5 Z"/></g>
<g><path style="opacity:1" fill="#fdfbfa" d="M 393.5,287.5 C 395.074,285.898 395.741,283.898 395.5,281.5C 410.017,234.152 441.351,204.319 489.5,192C 533.067,182.732 572.4,191.399 607.5,218C 631.514,239.862 645.014,267.029 648,299.5C 651.904,345.127 637.071,383.294 603.5,414C 578.975,433.414 550.975,442.914 519.5,442.5C 471.453,442.898 434.286,423.232 408,383.5C 391.33,353.291 386.497,321.291 393.5,287.5 Z"/></g>
<g><path style="opacity:1" fill="#9a2b2d" d="M 205.5,193.5 C 183.167,193.5 160.833,193.5 138.5,193.5C 139.609,192.71 140.942,192.21 142.5,192C 162.833,191.333 183.167,191.333 203.5,192C 204.416,192.278 205.082,192.778 205.5,193.5 Z"/></g>
<g><path style="opacity:1" fill="#fdfcfb" d="M 138.5,193.5 C 160.833,193.5 183.167,193.5 205.5,193.5C 223.281,195.075 239.614,200.575 254.5,210C 273.626,227.242 279.792,248.408 273,273.5C 265.256,294.244 251.089,308.744 230.5,317C 229.409,319.064 229.242,321.231 230,323.5C 247.371,353.582 267.204,381.916 289.5,408.5C 297.533,417.708 306.867,425.208 317.5,431C 322.003,432.78 326.67,433.613 331.5,433.5C 331.835,438.356 329.502,440.523 324.5,440C 295.185,444.139 271.018,434.973 252,412.5C 248,407.5 244,402.5 240,397.5C 226.455,375.572 212.288,354.072 197.5,333C 190.134,328.713 182.134,326.879 173.5,327.5C 170.167,327.667 166.833,327.833 163.5,328C 162.5,328.5 161.5,329 160.5,329.5C 160.167,342.333 159.833,355.167 159.5,368C 159.394,383.2 159.894,398.367 161,413.5C 162.464,420.964 166.964,425.464 174.5,427C 179.584,427.173 184.584,427.839 189.5,429C 190.602,431.401 190.769,433.901 190,436.5C 189.196,437.804 188.029,438.471 186.5,438.5C 158.678,437.188 130.845,437.188 103,438.5C 101.236,438.456 99.5691,438.122 98,437.5C 97.502,434.518 97.3354,431.518 97.5,428.5C 105.811,428.505 113.811,427.005 121.5,424C 126.122,419.152 128.622,413.319 129,406.5C 129.667,346.5 129.667,286.5 129,226.5C 129.589,218.244 126.423,212.078 119.5,208C 113.5,207 107.5,206 101.5,205C 98.8333,202 98.8333,199 101.5,196C 113.843,195.166 126.176,194.333 138.5,193.5 Z"/></g>
<g><path style="opacity:1" fill="#fdfbfb" d="M 848.5,195.5 C 848.756,197.792 848.423,199.959 847.5,202C 843.644,202.177 839.977,202.677 836.5,203.5C 825.198,203.147 818.864,208.48 817.5,219.5C 816.691,221.292 816.191,223.292 816,225.5C 815.333,285.5 815.333,345.5 816,405.5C 816.21,407.058 816.71,408.391 817.5,409.5C 817.302,419.288 821.969,425.121 831.5,427C 836.833,427.667 842.167,428.333 847.5,429C 848.833,431.667 848.833,434.333 847.5,437C 816.168,437.5 784.835,437.667 753.5,437.5C 753.223,434.552 753.556,431.719 754.5,429C 762.843,428.536 770.843,426.703 778.5,423.5C 781.972,420.225 784.138,416.225 785,411.5C 785.667,347.5 785.667,283.5 785,219.5C 784.114,212.185 780.281,207.351 773.5,205C 766.793,204.03 760.126,202.863 753.5,201.5C 752.48,199.568 752.313,197.568 753,195.5C 768.613,194.174 784.447,193.508 800.5,193.5C 816.167,193.667 831.833,193.833 847.5,194C 848.056,194.383 848.389,194.883 848.5,195.5 Z"/></g>
<g><path style="opacity:1" fill="#914a45" d="M 848.5,195.5 C 849.473,197.948 849.806,200.615 849.5,203.5C 845.167,203.5 840.833,203.5 836.5,203.5C 839.977,202.677 843.644,202.177 847.5,202C 848.423,199.959 848.756,197.792 848.5,195.5 Z"/></g>
<g><path style="opacity:1" fill="#94181c" d="M 541.5,429.5 C 534.191,430.248 526.858,430.582 519.5,430.5C 489.659,428.666 466.493,415.332 450,390.5C 429.566,355.41 422.733,317.743 429.5,277.5C 430.768,275.095 431.435,272.428 431.5,269.5C 439.99,234.842 461.324,212.342 495.5,202C 545.911,194.952 581.078,214.786 601,261.5C 611.842,292.778 614.509,324.778 609,357.5C 603.883,384.911 589.716,406.078 566.5,421C 558.756,425.537 550.423,428.371 541.5,429.5 Z"/></g>
<g><path style="opacity:1" fill="#94191c" d="M 166.5,204.5 C 182.238,203.24 197.571,205.074 212.5,210C 232.116,221.117 241.783,237.95 241.5,260.5C 242.246,274.752 238.746,287.752 231,299.5C 222.156,309.568 210.989,315.068 197.5,316C 187.167,316.667 176.833,316.667 166.5,316C 163.993,315.907 161.826,315.074 160,313.5C 159.333,279.167 159.333,244.833 160,210.5C 161.436,207.558 163.603,205.558 166.5,204.5 Z"/></g>
<g><path style="opacity:1" fill="#c27b76" d="M 431.5,269.5 C 431.435,272.428 430.768,275.095 429.5,277.5C 429.294,274.505 429.96,271.838 431.5,269.5 Z"/></g>
<g><path style="opacity:1" fill="#c19191" d="M 395.5,281.5 C 395.741,283.898 395.074,285.898 393.5,287.5C 393.259,285.102 393.926,283.102 395.5,281.5 Z"/></g>
<g><path style="opacity:1" fill="#993935" d="M 817.5,219.5 C 817.5,282.833 817.5,346.167 817.5,409.5C 816.71,408.391 816.21,407.058 816,405.5C 815.333,345.5 815.333,285.5 816,225.5C 816.191,223.292 816.691,221.292 817.5,219.5 Z"/></g>
<g><path style="opacity:1" fill="#d78d8a" d="M 541.5,429.5 C 537.44,431.017 533.107,431.684 528.5,431.5C 525.314,431.498 522.314,431.165 519.5,430.5C 526.858,430.582 534.191,430.248 541.5,429.5 Z"/></g>
<g><path style="opacity:1" fill="#862a24" d="M 37.5,465.5 C 334.167,465.5 630.833,465.5 927.5,465.5C 927.5,466.167 927.5,466.833 927.5,467.5C 630.833,467.5 334.167,467.5 37.5,467.5C 37.5,466.833 37.5,466.167 37.5,465.5 Z"/></g>
</svg>
