<?xml version="1.0" encoding="UTF-8"?>
<!DOCTYPE svg PUBLIC "-//W3C//DTD SVG 1.1//EN" "http://www.w3.org/Graphics/SVG/1.1/DTD/svg11.dtd">
<svg xmlns="http://www.w3.org/2000/svg" version="1.1" width="72px" height="37px" style="shape-rendering:geometricPrecision; text-rendering:geometricPrecision; image-rendering:optimizeQuality; fill-rule:evenodd; clip-rule:evenodd" xmlns:xlink="http://www.w3.org/1999/xlink">
<g><path style="opacity:1" fill="#140303" d="M -0.5,-0.5 C 23.5,-0.5 47.5,-0.5 71.5,-0.5C 71.5,11.8333 71.5,24.1667 71.5,36.5C 47.5,36.5 23.5,36.5 -0.5,36.5C -0.5,24.1667 -0.5,11.8333 -0.5,-0.5 Z"/></g>
<g><path style="opacity:1" fill="#971c1e" d="M 2.5,2.5 C 24.5,2.5 46.5,2.5 68.5,2.5C 68.5,12.8333 68.5,23.1667 68.5,33.5C 46.5,33.5 24.5,33.5 2.5,33.5C 2.5,23.1667 2.5,12.8333 2.5,2.5 Z"/></g>
<g><path style="opacity:1" fill="#f4e7e7" d="M 7.5,14.5 C 11.9609,12.7953 16.1275,13.4619 20,16.5C 20.1998,19.284 19.3665,21.784 17.5,24C 18.6702,26.6682 20.3368,29.0016 22.5,31C 21.5,31.6667 20.5,31.6667 19.5,31C 17.4701,29.1038 15.8034,26.9371 14.5,24.5C 13.675,23.6143 12.675,23.281 11.5,23.5C 11.2317,26.1194 11.565,28.6194 12.5,31C 10.8333,31.6667 9.16667,31.6667 7.5,31C 8.76572,28.6166 9.43239,25.95 9.5,23C 9.33333,20.5 9.16667,18 9,15.5C 8.61742,14.944 8.11742,14.6107 7.5,14.5 Z"/></g>
<g><path style="opacity:1" fill="#f4e7e7" d="M 55.5,14.5 C 57.6282,13.3709 59.9615,13.2042 62.5,14C 61.2289,16.5539 60.5623,19.3872 60.5,22.5C 60.5235,25.4206 60.8568,28.254 61.5,31C 59.8333,31.6667 58.1667,31.6667 56.5,31C 57.7657,28.6166 58.4324,25.95 58.5,23C 58.3333,20.5 58.1667,18 58,15.5C 57.3292,14.7476 56.4959,14.4142 55.5,14.5 Z"/></g>
<g><path style="opacity:1" fill="#961d1e" d="M 11.5,14.5 C 16.9836,14.4809 18.6503,16.9809 16.5,22C 14.8659,22.4935 13.1992,22.6602 11.5,22.5C 11.5,19.8333 11.5,17.1667 11.5,14.5 Z"/></g>
<g><path style="opacity:1" fill="#efdddc" d="M 41.5,31.5 C 40.8333,31.5 40.5,31.1667 40.5,30.5C 42.0174,30.4894 43.1841,29.8228 44,28.5C 44.9777,24.0998 44.4777,19.9331 42.5,16C 36.047,13.058 32.3803,15.058 31.5,22C 31.6148,24.7318 32.4481,27.2318 34,29.5C 34.6708,30.2524 35.5041,30.5858 36.5,30.5C 36.5,31.1667 36.1667,31.5 35.5,31.5C 31.0452,30.2984 28.7118,27.2984 28.5,22.5C 30.7956,13.8542 36.1289,11.3542 44.5,15C 47.3181,18.3379 48.1515,22.1712 47,26.5C 45.9243,29.079 44.091,30.7457 41.5,31.5 Z"/></g>
<g><path style="opacity:1" fill="#951a1c" d="M 40.5,30.5 C 39.1667,30.5 37.8333,30.5 36.5,30.5C 35.5041,30.5858 34.6708,30.2524 34,29.5C 32.4481,27.2318 31.6148,24.7318 31.5,22C 32.3803,15.058 36.047,13.058 42.5,16C 44.4777,19.9331 44.9777,24.0998 44,28.5C 43.1841,29.8228 42.0174,30.4894 40.5,30.5 Z"/></g>
<g><path style="opacity:1" fill="#c58384" d="M 36.5,30.5 C 37.8333,30.5 39.1667,30.5 40.5,30.5C 40.5,31.1667 40.8333,31.5 41.5,31.5C 39.5,32.8333 37.5,32.8333 35.5,31.5C 36.1667,31.5 36.5,31.1667 36.5,30.5 Z"/></g>
</svg>
